<?xml version="1.0" encoding="UTF-8"?>
<svg xmlns="http://www.w3.org/2000/svg" version="1.1" viewBox="0 0 30 30">
  <defs>
    <style>
      .cls-1 {
        fill: #262324;
      }
    </style>
  </defs>
  <!-- Generator: Adobe Illustrator 28.6.0, SVG Export Plug-In . SVG Version: 1.2.0 Build 709)  -->
  <g>
    <g id="Capa_1">
      <path class="cls-1" d="M15.1.3C9.1.3,5.1,4.3,5.1,10.1s7.2,17.5,9.1,19.4c.1.1.3.2.5.2h0c.2,0,.4-.1.5-.3,1-1.1,9.6-11.1,9.6-19.3C24.9,3.3,20,.3,15.1.3ZM14.7,27.8c-2.3-2.7-8.1-11.1-8.1-17.7S9.9,1.8,15.1,1.8s8.3,2.2,8.3,8.3-5.2,13.7-8.7,17.7ZM15,6.1c-2.2,0-4,1.8-4,4s1.8,4,4,4,4-1.8,4-4-1.8-4-4-4ZM15,12.6c-1.4,0-2.5-1.1-2.5-2.5s1.1-2.5,2.5-2.5,2.5,1.1,2.5,2.5-1.1,2.5-2.5,2.5Z"/>
    </g>
  </g>
</svg>