<?xml version="1.0" encoding="utf-8"?>
<!-- Generator: Adobe Adobe Illustrator 28.7.0, SVG Export Plug-In . SVG Version: 6.00 Build 0)  -->
<svg version="1.1" id="Layer_1" xmlns="http://www.w3.org/2000/svg" xmlns:xlink="http://www.w3.org/1999/xlink" x="0px" y="0px"
	 width="32px" height="32px" viewBox="0 0 32 32" style="enable-background:new 0 0 32 32;" xml:space="preserve">
<style type="text/css">
	.st0{fill:#FFFFFF;}
</style>
<path class="st0" d="M11,16.9v5.6c0,4.1,3.4,7.5,7.5,7.5s7.5-3.4,7.5-7.5v-0.7c1.6-0.6,2.4-2.3,1.8-3.8c-0.6-1.6-2.3-2.4-3.8-1.8
	s-2.4,2.3-1.8,3.8c0.3,0.9,1,1.5,1.8,1.8v0.7c0,3-2.5,5.5-5.5,5.5S13,25.5,13,22.5v-5.6c4-0.5,7-3.9,7-7.9V4c0-0.6-0.4-1-1-1h-2.3
	c-0.6-1-1.8-1.3-2.7-0.7S12.7,4,13.3,5C13.8,6,15,6.3,16,5.7c0.3-0.2,0.6-0.4,0.7-0.7H18v4c0,3.3-2.7,6-6,6s-6-2.7-6-6V5h1.3
	C7.8,6,9.1,6.3,10,5.7S11.3,4,10.7,3C10.2,2,9,1.7,8,2.3C7.7,2.4,7.5,2.7,7.3,3H5C4.4,3,4,3.4,4,4v5C4,13,7,16.4,11,16.9z M25,18
	c0.6,0,1,0.4,1,1s-0.4,1-1,1s-1-0.4-1-1S24.4,18,25,18z"/>
</svg>
