<?xml version="1.0" encoding="utf-8"?>
<!-- Generator: Adobe Adobe Illustrator 28.7.0, SVG Export Plug-In . SVG Version: 6.00 Build 0)  -->
<svg version="1.1" id="Layer_1" xmlns="http://www.w3.org/2000/svg" xmlns:xlink="http://www.w3.org/1999/xlink" x="0px" y="0px"
	 width="156px" height="160px" viewBox="0 0 156 160" style="enable-background:new 0 0 156 160;" xml:space="preserve">
<style type="text/css">
	.st0{clip-path:url(#SVGID_00000128448306975164975620000009648173514624960153_);}
	.st1{fill:#707070;}
</style>
<g>
	<defs>
		<rect id="SVGID_1_" x="0.1" y="0.3" width="155.6" height="158.8"/>
	</defs>
	<clipPath id="SVGID_00000028292414546290924470000006442627947765766079_">
		<use xlink:href="#SVGID_1_"  style="overflow:visible;"/>
	</clipPath>
	<g style="clip-path:url(#SVGID_00000028292414546290924470000006442627947765766079_);">
		<path class="st1" d="M155.6,46.6c-0.8,15.2-2.5,30.4-7.7,44.9c-4.9,13.7-9,27.7-16.2,40.5c-1,1.8-2.1,3.5-2.9,5.3
			c-3.5,7.9-9.5,13.4-16.4,18.2c-10.6,7.5-24.3,1.2-26.2-9.8c-0.9-4.8-1.3-9.8-1.8-14.7c-0.8-7.2-1.3-14.5-2.2-21.7
			c-0.6-3.5-1.5-7-2.7-10.4c-1.1-3.2-3.4-3.6-5.9-1.3c-2.2,2.2-3.6,4.9-4.2,7.9c-1.4,6.6-2.3,13.3-4,19.8
			c-1.7,6.5-3.9,12.8-6.1,19.2c-1.2,3.4-3.7,6.1-6.4,8.5c-6.1,5.4-15.1,4-20-1.3c-9.3-10-15.9-21.3-19.1-34.7
			c-2.5-10.6-5.8-21-8-31.6C2.5,69.4-0.1,53.2,0.7,36.7c0.2-3.9,0.8-7.8,1.6-11.6c2-9.4,8.1-15.3,16.6-18.9C26.4,2.9,34,2.1,41.9,5
			c5.8,2.2,11.6,4.2,17.6,5.8c6,1.5,12,2.8,18.1,3.7c4.3,0.7,8.4-0.6,12.3-2.5c4.8-2.3,9.7-4.6,14.6-6.8c5.7-2.6,11.7-3.7,17.9-4.4
			c12.6-1.3,23.9,8.2,27.9,16.5c3,6.1,4.1,12.6,4.7,19.2C155.4,39.8,155.5,43.1,155.6,46.6z M8.2,42c0,9.7,1.8,27.1,4.4,39.5
			c2.4,11.2,5.4,22.2,8.1,33.3c2.8,11.6,8.2,22.4,15.9,31.6c3.1,3.8,7.5,4.2,10.7,0.7c1.9-2.2,3.5-4.6,4.5-7.3
			c3.5-8.7,5.3-17.8,6.9-27c0.9-5,1.7-10,4-14.5c1.8-3.6,4.3-6.6,7.9-8.5c5.9-3,12.1-1.3,15.4,4.4c0.9,1.7,1.7,3.4,2.3,5.2
			c2.5,6.9,3.8,14.1,4.7,21.3c0.9,7.2,1.6,14.5,2.7,21.7c1,6.3,5.3,8.7,11.3,6.5c3.9-1.3,7.1-4,9.2-7.5c6.1-9.9,11.7-19.9,15.7-30.8
			c2.4-6.6,4.9-13.3,7.2-19.9c6.3-18.1,9.4-36.7,7.7-55.9c-0.5-5.3-1.3-10.6-4.1-15.1c-4.4-7.1-10.3-12-19.5-11.5
			c-4.7,0.2-9.4,1.2-13.7,3c-5.6,2.4-11.1,4.9-16.5,7.6c-5,2.4-10.2,3.6-15.7,3.1c-4.3-0.4-8.8-0.8-13-2c-8.3-2.3-16.6-4.9-24.7-7.9
			c-8.2-3-15.4-1-22.3,3.4c-3.6,2.3-6.3,6-7.3,10.1C8.7,30.9,8,36.4,8.2,42z"/>
		<path class="st1" d="M143.8,42.1c-0.3,3.3-0.4,6.7-1,10c-0.3,1.8-1,3.4-2,4.9c-0.4,0.5-0.9,0.9-1.5,1.1c-0.6,0.3-1.2,0.4-1.9,0.4
			c-1.6-0.1-2.4-1.6-2.5-3.1c-0.1-1.9,0-3.8,0.2-5.7c0.2-2.7,0.6-5.3,0.9-8c0.8-7.8-2.4-13.9-8.1-19c-0.8-0.7-1.9-1.3-2.5-2.2
			c-0.7-0.8-1-1.8-1-2.9c0.2-1.4,1.7-1.9,2.9-1.6c1.6,0.3,3.2,1,4.6,1.9C139.7,23.9,144.4,31.7,143.8,42.1z"/>
		<path class="st1" d="M140.8,69.8c0,2.1-0.2,4-2.4,5.1c-0.7,0.3-1.4,0.5-2.1,0.3c-0.7-0.1-1.4-0.5-1.9-1.1
			c-1.6-1.7-1.3-3.6-0.5-5.6c1.1-2.8,2.4-3.9,4.1-3.7C139.9,65.1,140.7,66.5,140.8,69.8z"/>
	</g>
</g>
</svg>
